# xmcd
#
# Track frame offsets:
#	150
#	15792
#	33836
#	56746
#	74964
#	92369
#	112656
#	127939
#	141964
#	163231
#	176547
#	189569
#	203567
#
# Disc length: 2872 seconds
#
# Revision: 0
# Processed by: cddbd v1.5.2PL0 Copyright (c) Steve Scherf et al.
# Submitted via: EasyCDDAExtractor 12.0.1.1
#
DISCID=a70b360d
DTITLE=Alan Jackson - Greatest Hits Volume 2 [cd2]
DYEAR=2003
DGENRE=Country
TTITLE0=When Somebody Loves You
TTITLE1=Where I Come From
TTITLE2=Where Were You (When The World Stopped Turning)
TTITLE3=Drive (For Daddy Gene)
TTITLE4=It's Five O'clock Somewhere (Feat. Jimmy Buffet)
TTITLE5=Remember When
TTITLE6=The Sounds
TTITLE7=When Love Comes Around
TTITLE8=Job Description
TTITLE9=Tropical Depression
TTITLE10=Let's Get Back To Me And You
TTITLE11=You Can't Give Up On Love
TTITLE12=Buicks To The Moon
EXTD=
EXTT0=
EXTT1=
EXTT2=
EXTT3=
EXTT4=
EXTT5=
EXTT6=
EXTT7=
EXTT8=
EXTT9=
EXTT10=
EXTT11=
EXTT12=
PLAYORDER=
